<mxfile encoding="UTF-8" host="app.diagrams.net" agent="Mozilla/5.0 (Windows NT 10.0; Win64; x64) AppleWebKit/537.36 (KHTML, like Gecko) Chrome/134.0.0.0 Safari/537.36" version="26.2.8">
  <diagram name="ArchiMate Model" id="archimate_diagram">
    <mxGraphModel dx="514" dy="527" grid="1" gridSize="10" guides="1" tooltips="1" connect="1" arrows="1" fold="1" page="1" pageScale="1" pageWidth="827" pageHeight="1169" math="0" shadow="0">
      <root>
        <mxCell id="0" />
        <mxCell id="1" parent="0" />
        <mxCell id="label_Motivation" value="Motivation" style="text;html=1;align=center;verticalAlign=middle;resizable=0;points=[];" parent="1" vertex="1">
          <mxGeometry x="117" y="38" width="200" height="30" as="geometry" />
        </mxCell>
        <mxCell id="elem_m1" value="Boost Supply Chain Resilience" style="html=1;outlineConnect=0;whiteSpace=wrap;fillColor=#CCCCFF;shape=mxgraph.archimate3.application;appType=goal;archiType=oct;" parent="1" vertex="1">
          <mxGeometry x="127" y="226" width="120" height="60" as="geometry" />
        </mxCell>
        <mxCell id="elem_m2" value="Enhance Product Quality" style="html=1;outlineConnect=0;whiteSpace=wrap;fillColor=#CCCCFF;shape=mxgraph.archimate3.application;appType=goal;archiType=oct;" parent="1" vertex="1">
          <mxGeometry x="272" y="226" width="120" height="60" as="geometry" />
        </mxCell>
        <mxCell id="elem_m3" value="Minimize Downtime" style="html=1;outlineConnect=0;whiteSpace=wrap;fillColor=#CCCCFF;shape=mxgraph.archimate3.application;appType=goal;archiType=oct;" parent="1" vertex="1">
          <mxGeometry x="460" y="220" width="120" height="60" as="geometry" />
        </mxCell>
        <mxCell id="elem_m4" value="Evolving Market Demands" style="html=1;outlineConnect=0;whiteSpace=wrap;fillColor=#CCCCFF;shape=mxgraph.archimate3.application;appType=driver;archiType=oct;" parent="1" vertex="1">
          <mxGeometry x="217" y="334" width="120" height="60" as="geometry" />
        </mxCell>
        <mxCell id="elem_m5" value="Faster Turnaround Times" style="html=1;outlineConnect=0;whiteSpace=wrap;fillColor=#CCCCFF;shape=mxgraph.archimate3.application;appType=outcome;archiType=oct;" parent="1" vertex="1">
          <mxGeometry x="127" y="118" width="120" height="60" as="geometry" />
        </mxCell>
        <mxCell id="elem_m6" value="Lower Production Costs" style="html=1;outlineConnect=0;whiteSpace=wrap;fillColor=#CCCCFF;shape=mxgraph.archimate3.application;appType=outcome;archiType=oct;" parent="1" vertex="1">
          <mxGeometry x="290" y="118" width="120" height="60" as="geometry" />
        </mxCell>
        <mxCell id="elem_m7" value="Greater Flexibility in Responding to Demand Fluctuations" style="html=1;outlineConnect=0;whiteSpace=wrap;fillColor=#CCCCFF;shape=mxgraph.archimate3.application;appType=outcome;archiType=oct;" parent="1" vertex="1">
          <mxGeometry x="440" y="118" width="120" height="60" as="geometry" />
        </mxCell>
        <mxCell id="conn_elem_m4_elem_m1" style="html=1;shape=mxgraph.archimate3.relationship;archiType=influence;" parent="1" source="elem_m4" target="elem_m1" edge="1">
          <mxGeometry relative="1" as="geometry" />
        </mxCell>
        <mxCell id="conn_elem_m4_elem_m2" style="html=1;shape=mxgraph.archimate3.relationship;archiType=influence;" parent="1" source="elem_m4" target="elem_m2" edge="1">
          <mxGeometry relative="1" as="geometry" />
        </mxCell>
        <mxCell id="conn_elem_m4_elem_m3" style="html=1;shape=mxgraph.archimate3.relationship;archiType=influence;" parent="1" source="elem_m4" target="elem_m3" edge="1">
          <mxGeometry relative="1" as="geometry" />
        </mxCell>
        <mxCell id="conn_elem_m1_elem_m5" style="html=1;shape=mxgraph.archimate3.relationship;archiType=influence;" parent="1" source="elem_m1" target="elem_m5" edge="1">
          <mxGeometry relative="1" as="geometry" />
        </mxCell>
        <mxCell id="conn_elem_m2_elem_m6" style="html=1;shape=mxgraph.archimate3.relationship;archiType=influence;" parent="1" source="elem_m2" target="elem_m6" edge="1">
          <mxGeometry relative="1" as="geometry" />
        </mxCell>
        <mxCell id="conn_elem_m3_elem_m7" style="html=1;shape=mxgraph.archimate3.relationship;archiType=influence;" parent="1" source="elem_m3" target="elem_m7" edge="1">
          <mxGeometry relative="1" as="geometry" />
        </mxCell>
        <mxCell id="label_Strategy" value="Strategy" style="text;html=1;align=center;verticalAlign=middle;resizable=0;points=[];" parent="1" vertex="1">
          <mxGeometry x="117" y="638" width="200" height="30" as="geometry" />
        </mxCell>
        <mxCell id="elem_s1" value="Smart Supply Chain Optimization" style="html=1;outlineConnect=0;whiteSpace=wrap;fillColor=#FFFFFF;shape=mxgraph.archimate3.rectangle;" parent="1" vertex="1">
          <mxGeometry x="217" y="718" width="120" height="60" as="geometry" />
        </mxCell>
        <mxCell id="elem_s2" value="Predictive Analytics" style="html=1;outlineConnect=0;whiteSpace=wrap;fillColor=#FFFFFF;shape=mxgraph.archimate3.rectangle;" parent="1" vertex="1">
          <mxGeometry x="127" y="826" width="120" height="60" as="geometry" />
        </mxCell>
        <mxCell id="elem_s3" value="IoT" style="html=1;outlineConnect=0;whiteSpace=wrap;fillColor=#FFFFFF;shape=mxgraph.archimate3.rectangle;" parent="1" vertex="1">
          <mxGeometry x="260" y="826" width="120" height="60" as="geometry" />
        </mxCell>
        <mxCell id="elem_s4" value="Machine Learning" style="html=1;outlineConnect=0;whiteSpace=wrap;fillColor=#FFFFFF;shape=mxgraph.archimate3.rectangle;" parent="1" vertex="1">
          <mxGeometry x="390" y="826" width="120" height="60" as="geometry" />
        </mxCell>
        <mxCell id="conn_elem_s2_elem_s1" style="html=1;shape=mxgraph.archimate3.relationship;archiType=association;" parent="1" source="elem_s2" target="elem_s1" edge="1">
          <mxGeometry relative="1" as="geometry" />
        </mxCell>
        <mxCell id="conn_elem_s3_elem_s1" style="html=1;shape=mxgraph.archimate3.relationship;archiType=association;" parent="1" source="elem_s3" target="elem_s1" edge="1">
          <mxGeometry relative="1" as="geometry" />
        </mxCell>
        <mxCell id="conn_elem_s4_elem_s1" style="html=1;shape=mxgraph.archimate3.relationship;archiType=association;" parent="1" source="elem_s4" target="elem_s1" edge="1">
          <mxGeometry relative="1" as="geometry" />
        </mxCell>
        <mxCell id="label_Business" value="Business" style="text;html=1;align=center;verticalAlign=middle;resizable=0;points=[];" parent="1" vertex="1">
          <mxGeometry x="27" y="1238" width="200" height="30" as="geometry" />
        </mxCell>
        <mxCell id="elem_b1" value="Production Scheduling" style="html=1;outlineConnect=0;whiteSpace=wrap;fillColor=#ffff99;shape=mxgraph.archimate3.application;appType=proc;archiType=rounded;" parent="1" vertex="1">
          <mxGeometry x="127" y="1426" width="120" height="60" as="geometry" />
        </mxCell>
        <mxCell id="elem_b2" value="Distribution Management" style="html=1;outlineConnect=0;whiteSpace=wrap;fillColor=#ffff99;shape=mxgraph.archimate3.application;appType=proc;archiType=rounded;" parent="1" vertex="1">
          <mxGeometry x="127" y="1318" width="120" height="60" as="geometry" />
        </mxCell>
        <mxCell id="elem_b3" value="Predictive Maintenance" style="html=1;outlineConnect=0;whiteSpace=wrap;fillColor=#ffff99;shape=mxgraph.archimate3.application;appType=proc;archiType=rounded;" parent="1" vertex="1">
          <mxGeometry x="127" y="1534" width="120" height="60" as="geometry" />
        </mxCell>
        <mxCell id="conn_elem_b1_elem_b2" style="html=1;shape=mxgraph.archimate3.relationship;archiType=association;" parent="1" source="elem_b1" target="elem_b2" edge="1">
          <mxGeometry relative="1" as="geometry" />
        </mxCell>
        <mxCell id="conn_elem_b3_elem_b1" style="html=1;shape=mxgraph.archimate3.relationship;archiType=triggering;" parent="1" source="elem_b3" target="elem_b1" edge="1">
          <mxGeometry relative="1" as="geometry" />
        </mxCell>
        <mxCell id="label_Application" value="Application" style="text;html=1;align=center;verticalAlign=middle;resizable=0;points=[];" parent="1" vertex="1">
          <mxGeometry x="117" y="1838" width="200" height="30" as="geometry" />
        </mxCell>
        <mxCell id="elem_a1" value="Central Analytics Platform" style="html=1;outlineConnect=0;whiteSpace=wrap;fillColor=#99ffff;shape=mxgraph.archimate3.application;appType=comp;archiType=square;" parent="1" vertex="1">
          <mxGeometry x="217" y="2026" width="120" height="60" as="geometry" />
        </mxCell>
        <mxCell id="elem_a2" value="Demand Prediction" style="html=1;outlineConnect=0;whiteSpace=wrap;fillColor=#99ffff;shape=mxgraph.archimate3.application;appType=serv;archiType=rounded;" parent="1" vertex="1">
          <mxGeometry x="127" y="1918" width="120" height="60" as="geometry" />
        </mxCell>
        <mxCell id="elem_a3" value="Production Optimization" style="html=1;outlineConnect=0;whiteSpace=wrap;fillColor=#99ffff;shape=mxgraph.archimate3.application;appType=serv;archiType=rounded;" parent="1" vertex="1">
          <mxGeometry x="217" y="1918" width="120" height="60" as="geometry" />
        </mxCell>
        <mxCell id="elem_a4" value="Bottleneck Prevention" style="html=1;outlineConnect=0;whiteSpace=wrap;fillColor=#99ffff;shape=mxgraph.archimate3.application;appType=serv;archiType=rounded;" parent="1" vertex="1">
          <mxGeometry x="400" y="1918" width="120" height="60" as="geometry" />
        </mxCell>
        <mxCell id="conn_elem_a1_elem_a2" style="html=1;shape=mxgraph.archimate3.relationship;archiType=association;" parent="1" source="elem_a1" target="elem_a2" edge="1">
          <mxGeometry relative="1" as="geometry" />
        </mxCell>
        <mxCell id="conn_elem_a1_elem_a3" style="html=1;shape=mxgraph.archimate3.relationship;archiType=association;" parent="1" source="elem_a1" target="elem_a3" edge="1">
          <mxGeometry relative="1" as="geometry" />
        </mxCell>
        <mxCell id="conn_elem_a1_elem_a4" style="html=1;shape=mxgraph.archimate3.relationship;archiType=association;" parent="1" source="elem_a1" target="elem_a4" edge="1">
          <mxGeometry relative="1" as="geometry" />
        </mxCell>
        <mxCell id="label_Technology" value="Technology" style="text;html=1;align=center;verticalAlign=middle;resizable=0;points=[];" parent="1" vertex="1">
          <mxGeometry x="72" y="2438" width="200" height="30" as="geometry" />
        </mxCell>
        <mxCell id="elem_t1" value="Smart Devices and Sensors" style="html=1;outlineConnect=0;whiteSpace=wrap;fillColor=#AFFFAF;shape=mxgraph.archimate3.application;appType=node;archiType=square;" parent="1" vertex="1">
          <mxGeometry x="172" y="2626" width="120" height="60" as="geometry" />
        </mxCell>
        <mxCell id="elem_t2" value="Real-time Data Capture" style="html=1;outlineConnect=0;whiteSpace=wrap;fillColor=#AFFFAF;shape=mxgraph.archimate3.application;appType=serv;archiType=rounded;" parent="1" vertex="1">
          <mxGeometry x="127" y="2518" width="120" height="60" as="geometry" />
        </mxCell>
        <mxCell id="elem_t3" value="IoT-enabled Predictive Maintenance" style="html=1;outlineConnect=0;whiteSpace=wrap;fillColor=#AFFFAF;shape=mxgraph.archimate3.application;appType=serv;archiType=rounded;" parent="1" vertex="1">
          <mxGeometry x="217" y="2518" width="120" height="60" as="geometry" />
        </mxCell>
        <mxCell id="conn_elem_t1_elem_t2" style="html=1;shape=mxgraph.archimate3.relationship;archiType=serving;" parent="1" source="elem_t1" target="elem_t2" edge="1">
          <mxGeometry relative="1" as="geometry" />
        </mxCell>
        <mxCell id="conn_elem_t1_elem_t3" style="html=1;shape=mxgraph.archimate3.relationship;archiType=serving;" parent="1" source="elem_t1" target="elem_t3" edge="1">
          <mxGeometry relative="1" as="geometry" />
        </mxCell>
      </root>
    </mxGraphModel>
  </diagram>
</mxfile>
